<svg xmlns="http://www.w3.org/2000/svg" xmlns:xlink="http://www.w3.org/1999/xlink" width="525" zoomAndPan="magnify" viewBox="0 0 393.75 393.749989" height="525" preserveAspectRatio="xMidYMid meet" version="1.0"><defs><clipPath id="6df9811d86"><path d="M 136 75.746094 L 198 75.746094 L 198 198 L 136 198 Z M 136 75.746094 " clip-rule="nonzero"/></clipPath><clipPath id="4ae101802b"><path d="M 197 75.746094 L 258 75.746094 L 258 198 L 197 198 Z M 197 75.746094 " clip-rule="nonzero"/></clipPath><clipPath id="63e63d70eb"><path d="M 197 197 L 258 197 L 258 318.746094 L 197 318.746094 Z M 197 197 " clip-rule="nonzero"/></clipPath><clipPath id="6948332951"><path d="M 136 197 L 198 197 L 198 318.746094 L 136 318.746094 Z M 136 197 " clip-rule="nonzero"/></clipPath><clipPath id="210e8e2567"><path d="M 197 136 L 318.632812 136 L 318.632812 198 L 197 198 Z M 197 136 " clip-rule="nonzero"/></clipPath><clipPath id="3a7fcf2a6c"><path d="M 197 197 L 318.632812 197 L 318.632812 258 L 197 258 Z M 197 197 " clip-rule="nonzero"/></clipPath><clipPath id="7648870787"><path d="M 75.632812 197 L 198 197 L 198 258 L 75.632812 258 Z M 75.632812 197 " clip-rule="nonzero"/></clipPath><clipPath id="f7c270c118"><path d="M 75.632812 136 L 198 136 L 198 198 L 75.632812 198 Z M 75.632812 136 " clip-rule="nonzero"/></clipPath></defs><g clip-path="url(#6df9811d86)"><path fill="#e91e63" d="M 197.132812 75.746094 L 197.132812 197.246094 L 136.382812 92.035156 Z M 197.132812 75.746094 " fill-opacity="1" fill-rule="nonzero"/></g><path fill="#ff5722" d="M 257.882812 92.035156 L 302.347656 136.496094 L 197.132812 197.246094 Z M 257.882812 92.035156 " fill-opacity="1" fill-rule="nonzero"/><g clip-path="url(#4ae101802b)"><path fill="#f44336" d="M 197.132812 75.746094 L 257.882812 92.035156 L 197.132812 197.246094 Z M 197.132812 75.746094 " fill-opacity="1" fill-rule="nonzero"/></g><g clip-path="url(#63e63d70eb)"><path fill="#8bc34a" d="M 197.132812 318.746094 L 197.132812 197.246094 L 257.882812 302.460938 Z M 197.132812 318.746094 " fill-opacity="1" fill-rule="nonzero"/></g><path fill="#03a9f4" d="M 136.382812 302.460938 L 91.921875 257.996094 L 197.132812 197.246094 Z M 136.382812 302.460938 " fill-opacity="1" fill-rule="nonzero"/><g clip-path="url(#6948332951)"><path fill="#4caf50" d="M 197.132812 318.746094 L 136.382812 302.460938 L 197.132812 197.246094 Z M 197.132812 318.746094 " fill-opacity="1" fill-rule="nonzero"/></g><g clip-path="url(#210e8e2567)"><path fill="#ff9800" d="M 318.632812 197.246094 L 197.132812 197.246094 L 302.347656 136.496094 Z M 318.632812 197.246094 " fill-opacity="1" fill-rule="nonzero"/></g><path fill="#ffeb3b" d="M 302.347656 257.996094 L 257.882812 302.460938 L 197.132812 197.246094 Z M 302.347656 257.996094 " fill-opacity="1" fill-rule="nonzero"/><g clip-path="url(#3a7fcf2a6c)"><path fill="#ffc107" d="M 318.632812 197.246094 L 302.347656 257.996094 L 197.132812 197.246094 Z M 318.632812 197.246094 " fill-opacity="1" fill-rule="nonzero"/></g><g clip-path="url(#7648870787)"><path fill="#3f51b5" d="M 75.632812 197.246094 L 197.132812 197.246094 L 91.921875 257.996094 Z M 75.632812 197.246094 " fill-opacity="1" fill-rule="nonzero"/></g><path fill="#9c27b0" d="M 91.921875 136.496094 L 136.382812 92.035156 L 197.132812 197.246094 Z M 91.921875 136.496094 " fill-opacity="1" fill-rule="nonzero"/><g clip-path="url(#f7c270c118)"><path fill="#673ab7" d="M 75.632812 197.246094 L 91.921875 136.496094 L 197.132812 197.246094 Z M 75.632812 197.246094 " fill-opacity="1" fill-rule="nonzero"/></g></svg>